<?xml version="1.0" encoding="UTF-8" standalone="no"?>
<!-- Created with Inkscape (http://www.inkscape.org/) -->

<svg
   xmlns:dc="http://purl.org/dc/elements/1.1/"
   xmlns:cc="http://creativecommons.org/ns#"
   xmlns:rdf="http://www.w3.org/1999/02/22-rdf-syntax-ns#"
   xmlns:svg="http://www.w3.org/2000/svg"
   xmlns="http://www.w3.org/2000/svg"
   xmlns:sodipodi="http://sodipodi.sourceforge.net/DTD/sodipodi-0.dtd"
   xmlns:inkscape="http://www.inkscape.org/namespaces/inkscape"
   width="256"
   height="256"
   id="svg3047"
   version="1.1"
   inkscape:version="0.48.5 r10040"
   sodipodi:docname="icon.svg"
   inkscape:export-filename="I:\wp\post-thumbnail-editor\assets\icon-128.png"
   inkscape:export-xdpi="45"
   inkscape:export-ydpi="45">
  <defs
     id="defs3049" />
  <sodipodi:namedview
     id="base"
     pagecolor="#ffffff"
     bordercolor="#666666"
     borderopacity="1.0"
     inkscape:pageopacity="0.0"
     inkscape:pageshadow="2"
     inkscape:zoom="1.0984499"
     inkscape:cx="90.797691"
     inkscape:cy="134.68554"
     inkscape:document-units="px"
     inkscape:current-layer="layer1"
     showgrid="false"
     fit-margin-top="0"
     fit-margin-left="0"
     fit-margin-right="0"
     fit-margin-bottom="0"
     inkscape:window-width="1022"
     inkscape:window-height="558"
     inkscape:window-x="175"
     inkscape:window-y="175"
     inkscape:window-maximized="0" />
  <metadata
     id="metadata3052">
    <rdf:RDF>
      <cc:Work
         rdf:about="">
        <dc:format>image/svg+xml</dc:format>
        <dc:type
           rdf:resource="http://purl.org/dc/dcmitype/StillImage" />
        <dc:title></dc:title>
      </cc:Work>
    </rdf:RDF>
  </metadata>
  <g
     inkscape:label="Layer 1"
     inkscape:groupmode="layer"
     id="layer1"
     transform="translate(-30.03795,-525.34878)">
    <g
       inkscape:label="Layer 1"
       id="layer1-1"
       transform="matrix(0.34116477,0,0,0.34116477,-38.939385,417.59245)"
       style="fill:#ff002f;fill-opacity:1;stroke:none"
       inkscape:export-filename="I:\wp\post-thumbnail-editor\assets\images\pte-127x110.png"
       inkscape:export-xdpi="15.873334"
       inkscape:export-ydpi="15.873334">
      <path
         inkscape:connector-curvature="0"
         id="rect3811"
         d="m 219.19354,379.18988 0,623.68752 623.6875,0 0,-60.65627 -52.5625,0 0,-250 52.5625,0 0,-313.03125 -623.6875,0 z m 623.6875,313.03125 0,47.625 89.90625,0 -9.875,-47.625 -80.03125,0 z m 0,250 85.34375,0 13.75,-51.4375 -99.09375,0 0,51.4375 z M 532.19354,691.87738 c 25.85878,-0.23149 46.90216,5.77803 63.125,18 9.92793,7.35009 17.14134,16.45711 21.625,27.34375 l 11.0625,-45.15625 160.71875,0 0.5625,46.375 -57.5,0 0,198.5625 -47.96875,5.25 -0.53125,-203.8125 -65.84375,0 c 3.36745,8.66277 5.03125,18.40128 5.03125,29.25 0,32.21268 -10.81109,55.149 -32.4375,68.78125 -17.16405,10.81777 -42.78754,16.21875 -76.875,16.21875 l 0,83.59375 -48.6875,6 0,-249.6875 67.71875,-0.71875 z m 8.90625,49.6875 c -0.65789,0.002 -1.32089,0.009 -2,0.0312 l -25.9375,0 0,61.375 22.78125,0.6875 c 8.64598,0.23758 16.75014,-3.16581 24.34375,-10.21875 7.59208,-7.05295 11.40625,-14.92418 11.40625,-23.625 0,-18.90272 -10.19922,-28.321 -30.59375,-28.25 z m 301.78125,44.46875 0,49.375 68.0625,0 0,-49.375 -68.0625,0 z"
         style="fill:#ff002f;fill-opacity:1;stroke:none" />
    </g>
  </g>
</svg>
